<mxfile host="app.diagrams.net" modified="2024-06-20T17:23:51.692Z" agent="Mozilla/5.0 (Windows NT 10.0; Win64; x64) AppleWebKit/537.36 (KHTML, like Gecko) Chrome/125.0.0.0 Safari/537.36" etag="vnMqQFcHVKLSUR4Qcov4" version="24.5.5" type="device">
  <diagram name="Page-1" id="rteDCkkKO6p-R6MeTjIK">
    <mxGraphModel dx="1434" dy="772" grid="1" gridSize="10" guides="1" tooltips="1" connect="1" arrows="1" fold="1" page="1" pageScale="1" pageWidth="850" pageHeight="1100" math="0" shadow="0">
      <root>
        <mxCell id="0" />
        <mxCell id="1" parent="0" />
        <mxCell id="-cgsFTUKVh0ujgJ57k_H-12" value="" style="shape=image;verticalLabelPosition=bottom;labelBackgroundColor=default;verticalAlign=top;aspect=fixed;imageAspect=0;image=data:image/png,iVBORw0KGgoAAAANSUhEUgAAAoAAAAHgCAYAAAA10dzkAAAAOXRFWHRTb2Z0d2FyZQBNYXRwbG90bGliIHZlcnNpb24zLjguMywgaHR0cHM6Ly9tYXRwbG90bGliLm9yZy/H5lhTAAAACXBIWXMAAA9hAAAPYQGoP6dpAABpQ0lEQVR4nO3deVxU5f4H8M+ZGWYAFTdkAMUly6VUNAzTLFdE6pqmuZe7Umm3QkttUdDKJbNuaYndFPuVmbZZNy3RUm+JkailZabmklcWMQEXmPX5/THNxDALAwyzMJ/36zWvmjPPeeY7h1k+Puec50hCCAEiIiIiChgybxdARERERJ7FAEhEREQUYBgAiYiIiAIMAyARERFRgGEAJCIiIgowDIBEREREAYYBkIiIiCjAMAASERERBRgGQCIiIqIAwwBIREREFGAYAImIiIgCDAMgERERUYBhACQiIiIKMAyARERERAGGAZCoEqmpqZAkCYWFhd4uxeN2794NSZKwe/dub5dCRERuxABIdUpGRgYkSbLcFAoFmjdvjkmTJuF///uft8uzeOONN5CRkeFy+/KvqeLtoYceqr1Cyca2bduQmppaK31PmjTJ6m+rUqnQrl07LFiwAGVlZTbtK74XwsLC0KdPH3zxxRcA/g7wrtwqU1JSgrS0NMTGxqJ+/foICQlBp06dMHfuXFy4cMHt28LbLly4gNTUVBw+fNjbpRDVCoW3CyCqDYsWLUKbNm1QVlaG/fv3IyMjA99++y2OHj2K4OBgb5eHN954A+Hh4Zg0aZLL6yQkJGDChAk2y9u1a+fGyqzdddddKC0thVKprLXn8Dfbtm3D6tWray0EqlQq/Pvf/wYAFBcXY+vWrVi8eDFOnTqF9957z6a9+X0hhMDZs2fx5ptvYsiQIdi+fTu6du2K//u//7NqP3/+fNSvXx/PPPOMyzX9/vvvGDhwIM6dO4eRI0dixowZUCqV+Omnn/D222/jk08+wW+//VazF+5jLly4gLS0NLRu3Rpdu3b1djlEbscASHVSUlISunfvDgCYNm0awsPDsWzZMnz22WcYNWqUl6urnnbt2uGBBx7w6HPKZDKXAvP169cRGhrqgYrqPoVCYfV3fuSRR9CrVy+8//77WLlyJdRqtVX7iu+LESNG4Oabb8a//vUvbNu2zeY9s3TpUoSHh7v8XtLr9Rg+fDjy8/Oxe/du9O7d2+rxF154AcuWLavqyyQiL+MuYAoId955JwDg1KlTVsu//vpr3HnnnahXrx4aNWqEoUOH4tixY3b7KCwsxKhRoxAWFoamTZviscces9ktp9frsXjxYrRt2xYqlQqtW7fG008/DY1GY2nTunVr/Pzzz9izZ49l91vfvn3d8jr79u2LTp064ZdffkG/fv0QGhqK5s2bY/ny5ZY2+fn5UCgUSEtLs1n/+PHjkCQJq1atAmD/GEDzc+Tk5OCuu+5CaGgonn76aQBAQUEBpk6dCrVajeDgYMTGxmLDhg1Wz3HmzBlIkoQVK1Zg7dq1lm1122234YcffrBqO2nSJNSvXx/nzp3DP/7xD9SvXx/NmzfH6tWrAQBHjhxB//79Ua9ePbRq1QobN260eU1FRUV4/PHHERMTA5VKhRtvvBHLli2D0Wisck2TJk2yPHdVdp/WhCRJ6N27N4QQ+P333ytt37FjR4SHh9u816vro48+wo8//ohnnnnGJvwBQFhYGF544QWrZVu2bEFcXBxCQkIsYbPiIRjmv+3//vc/DBs2DPXr10ezZs0wZ84cGAwGS7uqvF8A4Ndff8X999+PJk2aIDg4GN27d8dnn31m066oqAhPPPEEWrduDZVKhRYtWmDChAkoLCzE7t27cdtttwEAJk+ebPk7V+WwDSJfxxFACghnzpwBADRu3NiybOfOnUhKSsINN9yA1NRUlJaW4vXXX8cdd9yBgwcPonXr1lZ9jBo1Cq1bt8aSJUuwf/9+vPbaa7h8+TLeeecdS5tp06Zhw4YNuP/++zF79mx8//33WLJkCY4dO4ZPPvkEAPDqq6/i0UcftdoNV3FUx56ysjK7J6KEhYVZ7aK9fPkyBg8ejOHDh2PUqFH48MMPMXfuXHTu3BlJSUlQq9Xo06cPNm/ejIULF1r19cEHH0Aul2PkyJFOa7l06RKSkpIwZswYPPDAA1Cr1SgtLUXfvn1x8uRJzJo1C23atMGWLVswadIkFBUV4bHHHrPqY+PGjbhy5QqSk5MhSRKWL1+O4cOH4/fff0dQUJClncFgQFJSEu666y4sX74c7733HmbNmoV69erhmWeewfjx4zF8+HCsWbMGEyZMQM+ePdGmTRsAppHJPn364H//+x+Sk5PRsmVL7Nu3D/Pnz0dubi5effXVKtWUnJyMCxcuIDMz02bXam2y9/51pLi4GJcvX0bbtm3d8tzm8PTggw+61D4jIwOTJ0/GbbfdhiVLliA/Px//+te/8N133+HQoUNo1KiRpa3BYEBiYiJ69OiBFStWYOfOnXj55ZfRtm1bPPzww1b9uvJ++fnnn3HHHXegefPmmDdvHurVq4fNmzdj2LBh+Oijj3DfffcBAK5evYo777wTx44dw5QpU3DrrbeisLAQn332Gc6fP4+OHTti0aJFWLBgAWbMmGH5B2SvXr1qujmJfIcgqkPWr18vAIidO3eKixcvij/++EN8+OGHolmzZkKlUok//vjD0rZr164iIiJCXLp0ybLsxx9/FDKZTEyYMMGybOHChQKAuPfee62e65FHHhEAxI8//iiEEOLw4cMCgJg2bZpVuzlz5ggA4uuvv7Ysu+WWW0SfPn1cfl0AHN7ef/99S7s+ffoIAOKdd96xLNNoNCIyMlKMGDHCsiw9PV0AEEeOHLF6nptvvln079/fcv+bb74RAMQ333xj8xxr1qyxWvfVV18VAMS7775rWabVakXPnj1F/fr1RUlJiRBCiNOnTwsAomnTpuLPP/+0tN26dasAID7//HPLsokTJwoA4sUXX7Qsu3z5sggJCRGSJIlNmzZZlv/6668CgFi4cKFl2eLFi0W9evXEb7/9ZlXrvHnzhFwuF+fOnatyTTNnzhS19dU5ceJEUa9ePXHx4kVx8eJFcfLkSbFixQohSZLo1KmTMBqNVu0BiKlTp4qLFy+KgoICceDAATF48GABQLz00kt2n6Oq771u3bqJhg0butRWq9WKiIgI0alTJ1FaWmpZ/p///EcAEAsWLLB6rQDEokWLbJ4vLi7Ocr8qf5sBAwaIzp07i7KyMssyo9EoevXqJW666SbLsgULFggA4uOPP7Z5DeZt/MMPPwgAYv369S69diJ/w13AVCcNHDgQzZo1Q0xMDO6//37Uq1cPn332GVq0aAEAyM3NxeHDhzFp0iQ0adLEsl6XLl2QkJCAbdu22fQ5c+ZMq/uPPvooAFjamv+bkpJi1W727NkAYDkzs7qGDh2KzMxMm1u/fv2s2tWvX9/q+C6lUon4+Hir3YfDhw+HQqHABx98YFl29OhR/PLLLxg9enSltahUKkyePNlq2bZt2xAZGYmxY8dalgUFBeGf//wnrl69ij179li1Hz16tNWIlnmUxd5uzmnTpln+v1GjRmjfvj3q1atndTxn+/bt0ahRI6v1t2zZgjvvvBONGzdGYWGh5TZw4EAYDAbs3bu32jXVlmvXrqFZs2Zo1qwZbrzxRsyZMwd33HEHtm7dand389tvv41mzZohIiIC3bt3x65du/DUU0/ZvA+rq6SkBA0aNHCp7YEDB1BQUIBHHnnE6tjRe+65Bx06dLD7Gah4Fvudd95pd3tX9rf5888/8fXXX2PUqFG4cuWK5W996dIlJCYm4sSJE5bd0B999BFiY2MtI4Ll1fYufSJfwV3AVCetXr0a7dq1Q3FxMdatW4e9e/dCpVJZHj979iwAU2ioqGPHjvjqq69w7do11KtXz7L8pptusmrXtm1byGQyy+65s2fPQiaT4cYbb7RqFxkZiUaNGlmes7patGiBgQMHutSu4o9Y48aN8dNPP1nuh4eHY8CAAdi8eTMWL14MwLT7V6FQYPjw4ZU+R/PmzW3ODD579ixuuukmyGTW/67s2LGj5fHyWrZsaVMjYNqFXV5wcDCaNWtmtaxhw4Z2X2fDhg2t1j9x4gR++uknm/XNCgoKqlWTq4qLi1FaWmq5r1Qqrf7BYU9wcDA+//xzAMD58+exfPlyFBQUICQkxG77oUOHYtasWdBqtfjhhx/w4osv4vr16zZ/h+oKCwtzOQA7+1x16NAB3377rdUye3/bxo0b293elf1tTp48CSEEnnvuOTz33HN26ysoKEDz5s1x6tQpjBgxwqXXRFRXMQBSnRQfH285C3jYsGHo3bs3xo0bh+PHj6N+/fpueQ5HIwXeHkGQy+V2lwshrO6PGTMGkydPxuHDh9G1a1ds3rwZAwYMQHh4eKXP4SiM1Eadjtq5sr7RaERCQgKeeuopu20rTqHjak2ueuyxx6xOgunTp0+lk2rL5XKroJ+YmIgOHTogOTnZ7skM5f9hcPfddyM8PByzZs1Cv379XArzlenQoQMOHTqEP/74AzExMTXurzxH27sqbc1/G/NJPXPmzEFiYqLdthX/cUYUyBgAqc6Ty+VYsmQJ+vXrh1WrVmHevHlo1aoVANNZrxX9+uuvCA8Ptxr9A0yjSeaTCwDTiIPRaLScLNKqVSsYjUacOHHCMuoFmM66LSoqsjwn4P2QCJiCcXJysmU38G+//Yb58+dXu79WrVrhp59+gtFotBp9+vXXXy2Pe1rbtm1x9epVl0ZOXVWVv91TTz1ltTvelZM4KoqKisITTzyBtLQ07N+/H7fffrvT9snJyXjllVfw7LPP4r777qvxe23IkCF4//338e6771b6/ij/uerfv7/VY8ePH6/V98ANN9wAwHTYQWV/77Zt2+Lo0aNO2/jCZ5SoNvEYQAoIffv2RXx8PF599VWUlZUhKioKXbt2xYYNG1BUVGRpd/ToUezYsQN33323TR/m6T/MXn/9dQCmOQcBWNapeGbpypUrAZiOgzKrV6+e1fN6Q6NGjZCYmIjNmzdj06ZNUCqVGDZsWLX7u/vuu5GXl2d1XKFer8frr7+O+vXro0+fPm6oumpGjRqFrKwsfPXVVzaPFRUVQa/XV7lP8z8MXPn73XzzzRg4cKDlFhcXV+XnA0zHm4aGhmLp0qWVtlUoFJg9ezaOHTuGrVu3Vuv5yrv//vvRuXNnvPDCC8jKyrJ5/MqVK5az2bt3746IiAisWbPGauqj7du349ixY1afAXeLiIhA3759kZ6ejtzcXJvHL168aPn/ESNG4Mcff7ScmV+eeUSxKn9nIn/EEUAKGE8++SRGjhyJjIwMPPTQQ3jppZeQlJSEnj17YurUqZZpYBo2bGj3Kg+nT5/Gvffei8GDByMrKwvvvvsuxo0bh9jYWABAbGwsJk6ciLVr16KoqAh9+vRBdnY2NmzYgGHDhlmdrBEXF4c333wTzz//PG688UZERETYjJhU9Ntvv+Hdd9+1Wa5Wq5GQkFCtbTJ69Gg88MADeOONN5CYmGg1RUdVzZgxA+np6Zg0aRJycnLQunVrfPjhh/juu+/w6quvunwigTs9+eST+Oyzz/CPf/wDkyZNQlxcHK5du4YjR47gww8/xJkzZ1za5V2eOcT985//RGJiIuRyOcaMGVMb5Vs0bdoUkydPxhtvvIFjx45ZjTDbM2nSJCxYsADLli2rUagHTCNqH3/8MQYOHIi77roLo0aNwh133IGgoCD8/PPP2LhxIxo3bowXXngBQUFBWLZsGSZPnow+ffpg7NixlmlgWrdujSeeeKJGtVRm9erV6N27Nzp37ozp06fjhhtuQH5+PrKysnD+/Hn8+OOPAEzviw8//BAjR47ElClTEBcXhz///BOfffYZ1qxZg9jYWLRt2xaNGjXCmjVr0KBBA9SrVw89evSw2gtA5Ne8eAYykduZp4H54YcfbB4zGAyibdu2om3btkKv1wshhNi5c6e44447REhIiAgLCxNDhgwRv/zyi9V65mlgfvnlF3H//feLBg0aiMaNG4tZs2ZZTXUhhBA6nU6kpaWJNm3aiKCgIBETEyPmz59vNS2FEELk5eWJe+65RzRo0EAAqHRaDjiZBqb8un369BG33HKLzfoTJ04UrVq1slleUlIiQkJCbKZvMXM0DYy95xBCiPz8fDF58mQRHh4ulEql6Ny5s800GuZpPexNU4IK07iYp0WpyFENrVq1Evfcc4/VsitXroj58+eLG2+8USiVShEeHi569eolVqxYIbRabZVr0uv14tFHHxXNmjUTkiS5dUoYR69XCCFOnTol5HK5mDhxolVtM2fOtNs+NTXV5m8nRNWngTG7fPmyWLBggejcubMIDQ0VwcHBolOnTmL+/PkiNzfXqu0HH3wgunXrJlQqlWjSpIkYP368OH/+vEuv1fx5M6vK30YI03aaMGGCiIyMFEFBQaJ58+biH//4h/jwww+t2l26dEnMmjVLNG/eXCiVStGiRQsxceJEUVhYaGmzdetWcfPNNwuFQsEpYajOkYSo5tHNREREROSXeAwgERERUYBhACQiIiIKMAyARERERAGGAbCWLVmyBLfddhsaNGiAiIgIDBs2zGbuubKyMsycORNNmzZF/fr1MWLECOTn5zvtVwiBBQsWICoqCiEhIRg4cCBOnDhRmy+FiIiI6ggGwFq2Z88ezJw5E/v370dmZiZ0Oh0GDRqEa9euWdo88cQT+Pzzz7Flyxbs2bMHFy5cqHQG/+XLl+O1117DmjVr8P3336NevXpITExEWVlZbb8kIiIi8nM8C9jDLl68iIiICOzZswd33XUXiouL0axZM2zcuBH3338/ANOVEzp27IisrCy7s/4LIRAdHY3Zs2djzpw5AEzXHFWr1cjIyKj1OcmIiIjIv3EiaA8rLi4GAMsF4XNycqDT6awuXdShQwe0bNnSYQA8ffo08vLyrNZp2LAhevTogaysLIcBUKPRWM3ObzQa8eeff6Jp06a87BERUQARQuDKlSuIjo62unQjBQ4GQA8yGo14/PHHcccdd6BTp04AgLy8PCiVSpsrMKjVauTl5dntx7xcrVa7vA5gOh4xLS2tBq+AiIjqkj/++AMtWrTwdhnkBQyAHjRz5kwcPXoU3377rVeef/78+UhJSbHcLy4uRsuWLXH69OkaXaZLp9Phm2++Qb9+/RAUFOSOUj2CdXuOP9YMsG5P88e6/bFmAPjzzz/Rrl07r1yikXwDA6CHzJo1C//5z3+wd+9eq39tRUZGQqvVoqioyGoUMD8/H5GRkXb7Mi/Pz89HVFSU1Tpdu3Z1WINKpYJKpbJZ3qRJE4SFhVXxFf1Np9MhNDQUTZs29asvQNbtOf5YM8C6Pc0f6/bHmsvj4T+Bizv+a5kQArNmzcInn3yCr7/+2uZC4nFxcQgKCsKuXbssy44fP45z586hZ8+edvts06YNIiMjrdYpKSnB999/73AdIiIiIjMGwFo2c+ZMvPvuu9i4cSMaNGiAvLw85OXlobS0FIDp5I2pU6ciJSUF33zzDXJycjB58mT07NnT6gSQDh064JNPPgFg+hfb448/jueffx6fffYZjhw5ggkTJiA6OhrDhg3zxsskIiIiP8JdwLXszTffBAD07dvXavn69esxadIkAMArr7wCmUyGESNGQKPRIDExEW+88YZV++PHj1vOIAaAp556CteuXcOMGTNQVFSE3r1748svv0RwcHCtvh4iIiLyfwyAtcyVaRaDg4OxevVqrF692uV+JEnCokWLsGjRohrXSERERIGFu4CJiIiIAgwDIBEREVGA4S5gIiIiHyKluWdqFrGQV3olxzgCSERERBRgGACJiIiIAgwDIBEREVGAYQAkIiIiCjA8CYSIiMgfGBWof3IG5FdvgKH+77h641pApvd2VeSnGACJiIh8XNiPi9Hgt0chlfvZbvjji7jS7nWUxD7nxcrIXzEAEhER+TBT+HvcziNyy3KGQKoqHgNIRETkq4wKNPjtUQCABOv5Ac33G/z2KGDkeA5VDQMgERGRj6p/cgYkKGzCn5kECRJMxwYSVQUDIBERkY+SX73Bre2IzBgAiYiIfJSh/u9ubUdkxoMGiIiIfJUhyOnDAgKAwTQlDFEVcASQiIjIB9U//igaHX0BgCnomcLe38z3r7R7nfMBUpUxABIREfmY+scfRaOflgAASm5+EVfavQrAUKGVAVfavcopYKhauAuYiIjIh1QMfyW3vGj6/85pvBIIuQ0DIBERkY9Iz9DZDX8AAJkeV9u94aXKqK7hLmAiIiIfkJ6hw/MrtADshD8iN+MIIBF5TMOGDVFaWurtMlwWEhKC999/36N1CyEqb0R1Tvnw98TDQUiZ+QKAF7xbFNVpHAEkIiLyItvwp/RyRRQIGACJiIi8hOGPvIUBkIiIyAsY/sibGACJiIg8jOGPvI0ngRAREVVgMAhk5xiRXyigDpcQHyeDXC65pa/DRw14caUOAMMfeQ8DIBERUTnbM/VYuFSL3Py/z8iOUktIm6dEUkLVfjbt9WXG8EfexF3AREREf9meqUdyisYmsOUVCCSnaLA90/Urbzjqy6xjO/4Ek/dwBJCIiAimXbULl2phbypG87LnXtSgSyfJsjtYrxMoKlEiv0BAEWS06uvZFzV2+wIASQJSl2kxqL+82ruWiWqCAZCIiAhAdo7R4WidWf5F4PaEsgpL78Kzy3QAdC4/lxDAhTzTsYE94+VVL5aohhgAiYiIAOQXunYVFkkCZOX23gphhCRZ7841GuFw9K86z0nkbgyAREREANThru2K/eDtYMuonU6nw7Zt23D33XcjKCjI0iYr24BRUyqOFFb/OYncjUegEhERAejSSYLSyUm5kgRER5qmhKlMfJwMUWoJkoN8V5W+iGoD33lERBTwyjQCyU9oodXaf9wc5FLnKl06aUMuN00bU37d6vZFVBsYAImIKKCVaQSm/VODPd8ZEBICzJ4ZhCi1dTCLUktIX6mq0jyASQkKpK9UITKi5n0RuRsDoAfs3bsXQ4YMQXR0NCRJwqeffmr1uCRJdm8vvfSSwz5TU1Nt2nfo0KGWXwkRUd1SMfxteCMYjz+sRNaOEGxeF4zXl6uweV0w9n0VUq3AlpSgcFtfRO7Ed6AHXLt2DbGxsZgyZQqGDx9u83hubq7V/e3bt2Pq1KkYMWKE035vueUW7Ny503JfoeCfk4jIVfbCX8/bTCd3yOWS26ZncWdfRO7CxOABSUlJSEpKcvh4ZGSk1f2tW7eiX79+uOGGG5z2q1AobNYlIqLKOQt/RIGAAdDH5Ofn44svvsCGDRsqbXvixAlER0cjODgYPXv2xJIlS9CyZUuH7TUaDTQajeV+SUkJANM0Bjqd6xOYVmRetyZ9eAPr9hxzrSEhIV6upGrM9Xqybnf8Xf3xPQJ4rm6NRiA5RY+9+wRCgoF1rynQvasROp2x8pUr8PdtTYFLEsKVqSrJXSRJwieffIJhw4bZfXz58uVYunQpLly4gODgYIf9bN++HVevXkX79u2Rm5uLtLQ0/O9//8PRo0fRoEEDu+ukpqYiLS3NZvnGjRsRGhparddDRORPdDoZ1r7XBcdOhEMZZMDDEw/hpjZF3i7L465fv45x48ahuLgYYWFh3i6HvIAB0MMqC4AdOnRAQkICXn/99Sr1W1RUhFatWmHlypWYOnWq3Tb2RgBjYmJQWFhYoy8AnU6HzMxMJCQkWE2E6utYt+f4Y80A6/a02q7bZuTvdQV6dK/ZuZD+uq0vXbqEqKgoBsAAxl3APuS///0vjh8/jg8++KDK6zZq1Ajt2rXDyZMnHbZRqVRQqVQ2y4OCgtzyxeWufjyNdXuOP9YMsG5Pq426yzQCD83WmMJfLRzz52/b2p9qpdrBaWB8yNtvv424uDjExsZWed2rV6/i1KlTiIqKqoXKiIj8F0/4ILLFAOgBV69exeHDh3H48GEAwOnTp3H48GGcO3fO0qakpARbtmzBtGnT7PYxYMAArFq1ynJ/zpw52LNnD86cOYN9+/bhvvvug1wux9ixY2v1tRAR1QaDQWD/ASMO/KjG/gNGGAzVOzrJYBDIyjbg0216ZGUbcO26keGPyA7uAvaAAwcOoF+/fpb7KSkpAICJEyciIyMDALBp0yYIIRwGuFOnTqGwsNBy//z58xg7diwuXbqEZs2aoXfv3ti/fz+aNWtWey+EiKgWbM/UY+FSLXLzBYDOyNisR5TagLR5yipNmGzdj4lSCWi1YPgjqoAB0AP69u2Lys61mTFjBmbMmOHw8TNnzljd37RpkztKIyLyqu2ZeiSnaFDxKzKvQCA5RYP0lXApBDrqx3xt30emBDH8EZXDXcBEROQVBoPAwqVam9AGwLIsdZm20t3Bzvoxe/8jfbV3KxPVRRwBJCIir8jOMVrtrq1ICOBCnkC/e0tRv57ksN3Va8JpP4Cpn+wcIy/JRvQXBkAiIvKK/ELXRuROnxUAaj565+rzEQUCBkAiIvIKdbjjUb3y5j0ehI7tHB+xdOw3I5a+WvmlzVx9PqJAwABIRERe0aQxIJMBRgeX4JUkIEot4aHJQZDLHYe3PncIbHhfj7wCYfc4QHM/8XE87J3IjJ8GIiLyuJO/GzFuusYS/irGO+mvBalzlU7DHwDI5RLS5imt1qtOP0SBhAGQiIg86uTvRoyeUoaCQoGO7WR4+XklItXW4SxKLSF9pcrleQCTEhRIX6lCZETN+iEKFPxEEBGRx1QMf5veDkaTxhJGDFFgX7YWOzIPYVBCN/SKr/qIXVKCAoP6y5GdY0R+oYA63LTblyN/RLYYAImIyCMchT/AtBv39u4y/FmQj9u7Vz+0yeUSp3ohcgF3ARMRUa1zFv6IyPMYAImIqFYx/BH5HgZAIiKqNQx/RL6JAZCIiGoFwx+R72IAJCIit2P4I/JtDIBERORWDH9Evo8BkIiI3Ibhj8g/cB5AIqIAYzAIt0yWXLGfJo2BcdM1DH9EfoABkIgogGzP1GPhUi1y84VlWZTadC3dqlwuzV4/MhlgNILhj8gPcBcwEVGA2J6pR3KKxiq0AUBegUByigbbM/U16sdoNP132gQFwx+Rj+MIIBFRADAYBBYu1UII28fMy2Y/p8Gx3wyQyRyHN6NR4K139Hb7AQAJwMurdBgxRMFr8BL5MAZAIqIAkJ1jtBmxq+jKVeCVN10bBXREALiQZzo2kNfkJfJdDIBERAEgv9B5+DO7o4cMbVo6Pjro9Dkjvvve6LbnIyLvYAAkIgoA6nDXdsc+lqx0OnKXlW3Ad9+Xue35iMg7eBIIEVEAOPc/g9PHJQmIjjRNCeNMfJwMUWoJkoN852o/RORd/IQSEdVxW7bq8OQCneV+xfBmvp86V1npiRtyuWnKmJr2Q0TexQBIRFSHbdmqw+xnTWf/PjhagfRXlIiMsA5nUWoJ6StVLs8DmJSgQPpKVY37ISLv4aeUiKiO+ugzA55KNVjC3wvPKiFJEhL7K2p8JZCkBAUG9Ze75YoiROR5DIBERHXQ/oNReO9j2/AHmHbjumOKFnf1Q0Sex13ARER1zEefGfDexzfbDX9ERAADIBFRnbJlq+6v3b4Sxo+UMfwRkV0MgEREdUT5Ez7ujP8Di+bLGf6IyC4eA0hEVAeUD3/jR8pwe+xxSFJbb5dFRD6KI4BERH6u4lQvppE/b1dFRL6MAZCIyI9VDH885o+IXMEA6AF79+7FkCFDEB0dDUmS8Omnn1o9PmnSJEiSZHUbPHhwpf2uXr0arVu3RnBwMHr06IHs7OxaegVEVF0Gg0BWtgGfbtMjK9sAg0G4ra8PPtEy/BFRtfAYQA+4du0aYmNjMWXKFAwfPtxum8GDB2P9+vWW+yqVymmfH3zwAVJSUrBmzRr06NEDr776KhITE3H8+HFERES4tX4iqp7tmXosXKpFbv7foS9KbbqUWlWvlmGvLzOGPyKqKgZAD0hKSkJSUpLTNiqVCpGRkS73uXLlSkyfPh2TJ08GAKxZswZffPEF1q1bh3nz5tWoXiKque2ZeiSnaCAq5LW8AoHkFA3SV8LlEOioL7Pet8sY/oioShgAfcTu3bsRERGBxo0bo3///nj++efRtGlTu221Wi1ycnIwf/58yzKZTIaBAwciKyvLUyUTkQMGg8DCpVq7gc287JnnNWgejUovnWYwCDz9vOPwJ0lA2jIdEvsreBk2InIZA6APGDx4MIYPH442bdrg1KlTePrpp5GUlISsrCzI5baXWSosLITBYIBarbZarlar8euvvzp8Ho1GA41GY7lfUlICANDpdNDpdNWu37xuTfrwBtbtOf5YM1D9uvcfMNrdVVvexUvAPaM1Ttu4QgjgQp7Avmwtbu9uOqw70La3N/ljzYD/1UvuxwDoA8aMGWP5/86dO6NLly5o27Ytdu/ejQEDBrjteZYsWYK0tDSb5Tt27EBoaGiN+8/MzKxxH97Auj3HH2sGql73gR/VADpX2i4kWAtlkNFpG61OhtIyZaV97cg8hD8L8q2WBcr29gX+VvP169e9XQJ5GQOgD7rhhhsQHh6OkydP2g2A4eHhkMvlyM+3/rLPz893ehzh/PnzkZKSYrlfUlKCmJgYDBo0CGFhYdWuV6fTITMzEwkJCQgKCqp2P57Guj3HH2sGql93kwgjMjbrK2339uuhllE7R/YfMGLc9Mr7GpTQzWoEMJC2tzf5Y80AcOnSJW+XQF7GAOiDzp8/j0uXLiEqKsru40qlEnFxcdi1axeGDRsGADAajdi1axdmzZrlsF+VSmX37OKgoCC3fHG5qx9PY92e4481A1WvO/5WI4KD9Sgrs/+4JJnOBu4Vr6z0uL1e8QJRagPyCoTd4wCd9RUo29sX+FvN/lQr1Q7OA+gBV69exeHDh3H48GEAwOnTp3H48GGcO3cOV69exZNPPon9+/fjzJkz2LVrF4YOHYobb7wRiYmJlj4GDBiAVatWWe6npKTgrbfewoYNG3Ds2DE8/PDDuHbtmuWsYCLyDr1eIOVZrdPwBwCpcysPf4DpJJG0eUqrdavbFxGRGQOgBxw4cADdunVDt27dAJjCW7du3bBgwQLI5XL89NNPuPfee9GuXTtMnToVcXFx+O9//2s1Wnfq1CkUFhZa7o8ePRorVqzAggUL0LVrVxw+fBhffvmlzYkhROQ5er3AY/M1+Gy7AUEK4OGpCkSprYNZlFpC+kpVleYBTEpQIH2lCpERNe+LiAjgLmCP6Nu3L4SjORwAfPXVV5X2cebMGZtls2bNcrrLl4g8p2L4e3OlCon9FZj7T4HsHCPyCwXU4RLi42TVGq1LSlBgUH+5W/oiImIAJCKqIUfhDzDtwu0ZbzudU3W4sy8iCmzcBUxEVAPOwh8Rka9iACQiqiaGPyLyVwyA5DGSJPnUrWHDht7eJOTHGP6IyJ8xABIRVRHDHxH5OwZAIqIqYPgjorqAAZCIyEUMf0RUV/Cbi4jqFIPBPfPuGQwC+w8YceBHNZpEGBF/qxEpz2oZ/oioTuC3FxHVGdsz9Vi4VIvc/L8nXo9Smy6lVpWrZVj30xkZm/WWa/sy/BFRXcBdwERUJ2zP1CM5RWMV/gAgr0AgOUWD7Zn6GvVjvrbvtIkKhj8i8nsMgETk9wwGgYVLtbB3xUXzstRlWhgMji/JWFk/Zlu/MFTaDxGRr+M/Y4nI72XnGG1G7MoTAriQJxDX9zpUKsfHA2o0ApcuO3+uC3mmYwx5STYi8mcMgETk9/ILXRuRM4W7mo/eufp8RES+igGQiPyeOty1s3yXLAhCl1scj9z99LMB8xfp3PZ8RES+igGQiPxei2hALgcMBvuPS5LpbOCxI4KcTglzSwcZXkvXI69A2D0O0NxPfBwPnyYi/8ZvMSLyaxdyjRg7XeM0/AFA6lxlpfMByuWmKWPKr1edfoiIfB0DIBH5rQu5RoyaUoazfwi0bCFhyQIlotTW4SxKLSF9pcrleQCTEhRIX6lCZETN+iEi8mX8JiMiv1Qx/G1eH4zmUTKMHaGo8ZVAkhIUGNRfjn3ZWuzIPIRBCd3QK54jf0RUdzAAEpHfcRT+ANNuXHdM0SKXS7i9uwx/FuTj9u7Vu5wcEZGv4i5gIvIrzsIfERG5ht+aROQ3GP6IiNyD35zkMUIIn7oVFxd7e5NQFTD8ERG5D789icjnMfwREbkXv0GJyKcx/BERuR+/RYnIZzH8ERHVDk4DQ0TVZjCIGs+556ivFtHA2Okahj8iolrAAEhE1bI9U4+FS7XIzf/7orlRatOl1Kp6tQx7fZmv7cvwR0TkfvxGJaIq256pR3KKxiqwAUBegUByigbbM/U17st8bd+HpwQx/BERuRm/VYmoSgwGgYVLtRDC9jHzstRlWhgMdhpUoS+z19fqXOqLiIhcx13ARFQl2TlGm9G68oQALuQJJD9Rhki16d+YRqMRZ8+0x/c/6SGTGS1t8/Kd9wWY+srOMbrl8m5ERGTCAEhEVZJf6Npo3FdfGwEYyy2JAb6vuMy9z0lERK5hACSiKlGHu3aW74ghcsQ0N40AGowGnDxxEjfedCPksr9H8v74nxEffW5w23MSEZFrGACJqEri42Ro3Ai4XGT/cUkynQ388vMqy5QwOp0O27b9jrvv7oCgoCBLW4NBYF92KfIKhN3jAM19xcfxcGUiInfityoRVck3/zWgpMT+Y9JfA3Wpc5UuzQcol5umjSm/bnX7IiIi1zEAEpHLdu7WY8bjGhiMQFxXGSLV1sEsSi0hfaWqSvMAJiUokL5ShciImvdFRESuYQD0gL1792LIkCGIjo6GJEn49NNPLY/pdDrMnTsXnTt3Rr169RAdHY0JEybgwoULTvtMTU2FJElWtw4dOtTyK6FAZg5/Oj3wj0Q5PswIxv4dIdi8LhivL1dh87pg7PsqpFqBLSlBgSw39UVERJXjt6sHXLt2DbGxsZgyZQqGDx9u9dj169dx8OBBPPfcc4iNjcXly5fx2GOP4d5778WBAwec9nvLLbdg586dlvsKBf+cVDsqhr/Xl6mgUJhG7Nw1PYtcLnGqFyIiD2Fi8ICkpCQkJSXZfaxhw4bIzMy0WrZq1SrEx8fj3LlzaNmypcN+FQoFIiMj3VorUUXOwh8REfkn7gL2QcXFxZAkCY0aNXLa7sSJE4iOjsYNN9yA8ePH49y5c54pkAIGwx8RUd3EEUAfU1ZWhrlz52Ls2LEICwtz2K5Hjx7IyMhA+/btkZubi7S0NNx55504evQoGjRoYHcdjUYDjUZjuV/y16mcOp0OOp2u2jWb161JH97Aup3btdeIR2brodMDmqtbseHNZGx4s/I5++wJCQnBunXrEBkZidLSUjdXWntYt3sVFxc7fdwfP5P+WDPgf/WS+0lCOLsKJ7mbJEn45JNPMGzYMJvHdDodRowYgfPnz2P37t1OA2BFRUVFaNWqFVauXImpU6fabZOamoq0tDSb5Rs3bkRoaKjLz0V135Ffw/HvjV1gMMjQrVM+Jo06CrmcXxVEdcX169cxbtw4FBcXV+m3huoOjgD6CJ1Oh1GjRuHs2bP4+uuvq/yBbNSoEdq1a4eTJ086bDN//nykpKRY7peUlCAmJgaDBg2q0ReATqdDZmYmEhISrCb59XWs275de41Y974eBgNwd4IM/5cei52fVW/kz8w8IjVlyhSfGpGqDOt2L1dGAP3tM+mPNQPApUuXvF0CeRkDoA8wh78TJ07gm2++QdOmTavcx9WrV3Hq1Ck8+OCDDtuoVCqoVCqb5UFBQW754nJXP57Guv+2c7festvXfMzf2levuq3/0tJSnwokrmLd7uHq+9UfP5P+VrM/1Uq1gyeBeMDVq1dx+PBhHD58GABw+vRpHD58GOfOnYNOp8P999+PAwcO4L333oPBYEBeXh7y8vKg1WotfQwYMACrVq2y3J8zZw727NmDM2fOYN++fbjvvvsgl8sxduxYT788qiN4wgcRUeDgCKAHHDhwAP369bPcN++GnThxIlJTU/HZZ58BALp27Wq13jfffIO+ffsCAE6dOoXCwkLLY+fPn8fYsWNx6dIlNGvWDL1798b+/fvRrFmz2n0x5FUGg8D+A0Yc+FGNJhFG9IoX1bpMmsEgkJ1jRH6hgDpcwpWrRjyUomX4IyIKEAyAHtC3b184O9fGlfNwzpw5Y3V/06ZNNS2L/Mz2TD0WLtUiN18A6IyMzXpEqQ1Im6es0hUzrPuxxvBHRBQYuAuYyA9sz9QjOUVjE9ryCgSSUzTYnqmvUT9m9wySM/wREQUAjgAS+TiDQWDhUi3sDRSbl81bpEFwsIBM5ji8GY0C8xbZ7wcAJAlY/JIOSQMV1dqtTERE/oMBkMjHZecYHY7Ymf15GZjwsNZpm8oIAVzIMx0byGvyEhHVbQyARD4uv9C1CZhbREtoGOZ45K64ROD8hcr7cvX5iIjIfzEAEvm4iHDX2q18XuV05C4r24BRU8oq7Ucdzt2/RER1HU8CIfJhQgh8scP5CR6SBERHSoiPc/5xjo+TIUotQXKQ71zth4iI/B+/6Yl8lBACC5Zo8c6mvy/DVjG8me+nzlVWeuKGXC4hbZ6yxv0QEZH/YwAk8kHm8JexUQ9JAl5apMTaV1SIjLAOZ1FqCekrVS7PA5iUoED6ypr3Q0RE/o3f9kQ+pmL4W56mxJjhput2Duovx75sLXZkHsKghG7oFV/1EbukBAUG9ZdbXQkkPk7GkT8iogDCAEjkQ5yFP8C0G/f27jL8WZCP27tXP7TJ5RKneiEiCmDcBUzkIyoLf0RERO7CAEjkAxj+iIjIkxgAibzM18OfEKLGt+LiYgBAcXGxW/rz1I11u/dGRL6DAZDIi4Tw7fBHRER1EwMgkZcw/BERkbcwABJ5AcMfERF5E6eBIXLAYBBumSuvYj+33SohbbmO4Y+IiLyGAZDIju2ZeixcqkVu/t8HrkepTZdSq8rVMuz1ExoKXL8Ohj8iIvIa7gImqmB7ph7JKRqr0AYAeQUCySkabM/U16if69dN/31wtILhj4iIvIIBkKgcg0Fg4VIt7M1YYV6WukwLg8H5lBbO+jHbudtQaT9ERES1gbuAicrJzjHajNiVJwRwIU/gprjrkDn555PRCOgqGSi8kGc6NpCXZCMiIk9jACQqJ7/QtRG5ysKdu5+PiIjInRgAicpRh7t2lu8bK5SIi3U8cpfzowGPzNG67fmIiIjciQGQqJyb2kpQKAC9gxE+STKdDXx3gsLplDDqCAlRah3yCoTd4wDN/cTH8TBcIiLyPP76EP3lcpHAA8kap+EPAFLnKiudD1AuN00ZU3696vRDRERUGxgAiWAKf2OnleHnX41o1lRC6jwlotTW4SxKLSF9pcrleQCTEhRIX6lCZETN+iEiInI3/gJRwLtcJDDh4b/D36Z1wWjXVoZJYxU1vhJIUoICg/rL3XJFESIiIndhAKSAdvV6EB58SI9fjgur8AeYduO6Y4oWd/VDRETkLgyAFLAuFwmsWncrzufahj8iIqK6jL92FJAuFwk8+JAe53MbILwpGP6IiCig8BePAo75hI9fjgs0qK/Be+lBDH9ERBRQ+KtHAaX82b7hTYF/Tj2Im9ryhAwiIgosDIAUMCpO9fJeehCiIq55uywiIiKPYwCkgFAx/G1aF8yRPyIiClg8C5jqHK3WiHc26XHmD4HWMRKGDJZj4iNam3n+dDqDt0ulcir+3SaMUUCp5L9RiYhqA79dPWDv3r0YMmQIoqOjIUkSPv30U6vHhRBYsGABoqKiEBISgoEDB+LEiROV9rt69Wq0bt0awcHB6NGjB7Kzs2vpFfiPF17W4KbupUhbrsOG9/VIW65D9/62kzyTb7H3d7upeyleeFnj7dKIiOok/hJ6wLVr1xAbG4vVq1fbfXz58uV47bXXsGbNGnz//feoV68eEhMTUVZW5rDPDz74ACkpKVi4cCEOHjyI2NhYJCYmoqCgoLZehs974WUN1qzXw2i0/3i/u+QMfz7I0d/NaATWrNczBBIR1QL+GnpAUlISnn/+edx33302jwkh8Oqrr+LZZ5/F0KFD0aVLF7zzzju4cOGCzUhheStXrsT06dMxefJk3HzzzVizZg1CQ0Oxbt26WnwlvkurNWLtBr3TNh9u1UOrdZAOyStc+but3cC/GxGRu/EYQC87ffo08vLyMHDgQMuyhg0bokePHsjKysKYMWNs1tFqtcjJycH8+fMty2QyGQYOHIisrCyHz6XRaKDR/D2aUlJSAgDQ6XTQ6XTVfg3mdWvSR02t3+h45M/MaATWb9RgynjT294X6q4Of6zbUc3V+bt5kj9ua4B1e5I/1gz4X73kfgyAXpaXlwcAUKvVVsvVarXlsYoKCwthMBjsrvPrr786fK4lS5YgLS3NZvmOHTsQGhpa1dJtZGZm1riP6tr7bTsALV1odwaRjX+zWubNumvCH+uuWHNN/m6e5I/bGmDdnuRvNV+/ft3bJZCXMQAGkPnz5yMlJcVyv6SkBDExMRg0aBDCwsKq3a9Op0NmZiYSEhIQFBTkjlKrLO+yHnv3V76b8K7erXH33TcC8I26q8Mf63ZUc3X+bp7kj9saYN2e5I81A8ClS5e8XQJ5GQOgl0VGRgIA8vPzERUVZVmen5+Prl272l0nPDwccrkc+fn5Vsvz8/Mt/dmjUqmgUqlslgcFBbnli8td/VTH5HFyvLiy1OnuRJkMmDxOhaAg60NfvVl3Tfhj3RVrvvN2CYDzkzwc/d08yR+3NcC6PcnfavanWql28CQQL2vTpg0iIyOxa9cuy7KSkhJ8//336Nmzp911lEol4uLirNYxGo3YtWuXw3XqOqVShhkTnf97pv9dMs4r50NO/m7Egw9pK203YyLnAyQicjd+q3rA1atXcfjwYRw+fBiA6cSPw4cP49y5c5AkCY8//jief/55fPbZZzhy5AgmTJiA6OhoDBs2zNLHgAEDsGrVKsv9lJQUvPXWW9iwYQOOHTuGhx9+GNeuXcPkyZM9/Op8xzOzVXhosgIyB+/qb/5rxOdfOj/jlDzj5O9GjJ5ShoJCgQ43SZg4VgGpwoVZZDLgockKPDPbdtSaiIhqhruAK7hw4QKio6Pd2ueBAwfQr18/y33zcXgTJ05ERkYGnnrqKVy7dg0zZsxAUVERevfujS+//BLBwcGWdU6dOoXCwkLL/dGjR+PixYtYsGAB8vLy0LVrV3z55Zc2J4YEmmdmq/Dko0FWV5QYP1KOp5/X48Otejw617S7cchgvvW9pWL4+2BdCJo0ltCwgcBraw1of6OEMcMVvBIIEVEt4q9gBbfccgtWr16NcePGua3Pvn37Qgjh8HFJkrBo0SIsWrTIYZszZ87YLJs1axZmzZrljhLrFKVShmkTlFbLViwyBYnyIXDwAI+XFvBOnRYYP8M2/AGAQiEDYEB8nNzm70dERO7Ff15X8MILLyA5ORkjR47En3/+6e1yyE3kcgkrFilx/1AFDAbg0bkafLGD1wL2pLyLoRg3Q2c3/BERkWcxAFbwyCOP4KeffsKlS5dw88034/PPP/d2SeQmFUPg408bcPBIhLfLCginTgu89u84XCwEwx8RkQ/gLmA72rRpg6+//hqrVq3C8OHD0bFjRygU1pvq4MGDXqqOasIcAgHT7uCMzZ3QrZsBw+7hlAi15eTvRoyboUPJVRXaM/wREfkEBkAHzp49i48//hiNGzfG0KFDbQIg+S9zCBRGIz763DQSKJfreWJILTCf8HGxEIhWX8F76U0Y/oiIfAB/8ex46623MHv2bAwcOBA///wzmjVr5u2SyM3kcglLF8px/vx5fH8ommcH14LyZ/u2v0nC5JEH0aRxgrfLIiIiMADaGDx4MLKzs7Fq1SpMmDDB2+VQLZLLJYwf/gtatGiBjz43MgS6UcWpXt5NV2B/Fi8+T0TkK/hLV4HBYMBPP/2EFi1aeLsU8gCZDFi6UA5JJuM8gW5ib56/BvU5ATcRkS/hr1wFmZmZ3i6BPMx0TKDpJJDyIfDuBDmyc4zILxRQh0uIj5NBLq/68WsGg3BLP76o4mtr0hgYN11jM9WLzoXBP73edCHn7BwD/v2OlhNBExHVIgZAItieHTzrKQ3CGgBFxX+3iVJLSJunRFKC6x+b7Zl6LFyqRW7+3xOBV6cfX2TvtclkgNFY9aleXnhZg/QM07yMx08KpC3XYfEKHWZM5KXgiIhqA/95TfQXcwjseZsMRqN1+AOAvAKB5BQNtme6tjtze6YeySkaq4BUnX58kaPXZjQN4mH6xKAqhb816/WoeLEcoxFYs16PF17WuKNkIiIqx7+HIIhqwZlz9i/bZw4oT6VqcPWaETKZ44BjNAosWq6zCTXmfiQJSF2mxaD+cr/bHWwwCCxcqrX72gBAAvDyKh1GDFFU+tq0WiPWbnAehNdu0OPJR4O4O5iIyI0YAInKyc4x2oxqVVRUDKQ8W7MzWoUALuSZjp/rGS+vUV+eVtk2EnD9tb2zSW8ZNXTEaDS14/WBiYjchwGQqJz8Qufhz6zDTRIimjkekSq4aMSvJyrvy9Xn8yWu1uxKuzN/uNaXq+2IiMg1DIBE5ajDXdsdu2i+yunoVla2AaOmlLnt+XyJqzW70q51jGt9udqOiIhcw4NqiMqJj5MhSi1BcpA3JAmIjjRN5VKTfgAgJATo3s3/gk2TxqazfR1xdRsBwIQxCqd9AabnmjCG/1YlInInBkCicuRy0xQtAGzCm/l+6lxlpSc3OOvHrLQUmJemg9HoP7s3T/5uxLjpGstxexVfWlW2EQAolTLMmOg83M2YyPkAiYjcjd+qRBUkJSiQvlKFyAjrABOllpC+UuXy/H2O+omOlDDtQdPI1+ZP9XhygdYvQmD5K3x0bCfDy88rEamu2TYCgGdmq/DQZIVNUJbJgIcmcx5AIqLawP0qRHYkJSgwqH/NrwTirJ+uneX45zwNNn9qmgblpUVKp1PLeFPF8Lfp7WA0aSxhxBCFW65y8sxsFZRBAq+tNaD9jRLGDFfwSiBERLWIAZDIAblccssULY76GXq36ePn6yHQUfgD3LeNAEChkAEwID5OzilfiIhqGQMgkRf5egh0Fv6IiMh/MQASeZmvhkCGPyKiuosBkMgH+FoIZPgjIqrbGACJfISvhECGPyKiuo8BkMiHeDsEMvwREQUGBkAiH+OtEMjwR0QUOBgAqc7Rao14Z5MeZ/4QaB0j+eV8co5CoBDA/gNGHPhRjSYRRvSKF9Wad6/iNuoVL8ODD2m9Gv7Mk2GfPmtEVrah2nMKEhFR5RgAqU554WUN1m7QWy5VBgCLV+gwY6L/XVGiYgg8f8GI02cFcvMFgM7I2KxHlNqAtHnKKl15w942MvNW+Nueqce//88UdL/db8S3+8sQpZaq/NqIiMg1/jUsQuTECy9rsGa9bbAxGoE16/V44WWNdwqrgaF3K/DaUhUkCdiXbfwr/P0tr0AgOUWD7Zl6l/pztI3M4uNkXgl/ySkaXL1mvbyqr42IiFzHAEh1glZrxNoNzoPC2g16aLUOko8P+0eiHA3D7D8mBAABLFiixeUiI0quCIe3wkuGSrfR/33g2W1kMAgsXKo1vY4KzMtSl2lhMPj+tZKJiPwJ961QnfDOJsejWmZGo6mdv11mLDvHiKJix48LmEbLuvQurfFzeXobZefYjmqWJwRwIU8gO8fotkvOERERRwCpjjjzh2sjRK628yX5hZ6t2ZPbyNXX5ultQERU13EEkOqE1jGuHbfmajtfog53reZ316pwe3fHo2Tr3tPhxZd1lfbjyW3k6mtztR0REbmGI4BUJ0wYo4CsknezTGZq52/i42SIUkuQHGQgSQKiIyX07iGHSik5vE0d73vbyNXXFh/HryoiInfityrVCUqlDDMmOg8uMc0lOEwaPkwuN02HAtiWb76fOldZ6Zx5rmyjsAZAUUm1S62y8q+toqq8NiIiqhoGQKoznpmtwkOTFXZDkkwGnP1D4OHZGmh1/nc8WVKCAukrVYiMsH5xUWoJ6StVLs+VZ95GFUcCZTIgNBQoKgbGTClDQaHnzgQ2v7b69ayXV/W1ERGR6xgAfUDr1q0hSZLNbebMmXbbZ2Rk2LQNDg72cNW+6ZnZKqxaHgQAiAgHFj4VhJM5IXjnTRVUSmDH1wa/DoFZO0Kw8S0FJo06go1vKbDvq5AqB6RnZquw9wvTpNiSZNpGJw6E4MsPQxCllnDid+GVEDjtQdPr6H27DJvXBVfrtRERkWsYAH3ADz/8gNzcXMstMzMTADBy5EiH64SFhVmtc/bsWU+V6/MUCtPbulVLGaZNUEKplKHPHQq8/br/h0C5XMLt3WXoHpuP27tX/1Jp5kvjKeSwbKM2LWX4YH2w10Kg+VrHbVrJ0DNezt2+RES1iAHQBzRr1gyRkZGW23/+8x+0bdsWffr0cbiOJElW66jVag9W7J8qhsBHn9JDr2fIKM/bIZCIiDyD+1d8jFarxbvvvouUlBRITk5YuHr1Klq1agWj0Yhbb70VL774Im655RanfWs0Gmg0f18OraTEdLS/TqeDTlf59CCOmNetSR/upNebAosQwqamXvHA2lcVmP64Hpm7BfLzO2PAQC3qhXqj0upxx/bW6/8e/azYT4so4L21CoyfocOJ3wVGTy7Fe2uD0KwGU7G4UrPhr5m8jUajz7yXfO297SrW7Tn+WDPgf/WS+0lC2LsIE3nL5s2bMW7cOJw7dw7R0dF222RlZeHEiRPo0qULiouLsWLFCuzduxc///wzWrRo4bDv1NRUpKWl2SzfuHEjQkP9KAFV4tDRCLz9fhe0bXUZT8zIsdvm2IkmSH83Fnq9HF06FmDKmCNQKALno1BUrMKzy++EXG7EvxZ9bbfNxUsh+NfbcSgqDkZks6v459SDCGugrbWatu1qg21ft8Wd8X9g9NDjtfY8RARcv34d48aNQ3FxMcLCHFxrkuo0BkAfk5iYCKVSic8//9zldXQ6HTp27IixY8di8eLFDtvZGwGMiYlBYWFhjb4AdDodMjMzkZCQgKCgoGr34y7bdxox80k9uneTsHmd43q++a8WySkG6PVyJPSV8PpyBZRBvr9L2B3bO69AoFeiDkEK4PgPji/7duacwPgZOuTmAze2QbVHAl2p+V/pBvxrjQHjR8qw+Gnf2Dnha+9tV7m77oYNG7qhqsqFhIRg3bp1mDJlCkpLa35pQ08w1+xv75FLly4hKiqKATCA+ca3LAEAzp49i507d+Ljjz+u0npBQUHo1q0bTp486bSdSqWCSqWyu747vrjc1U9NKRR6AHpIkuS0nn53AskP7MdbG29F5m6Bf84z4s2XVX4RAoGabW+FwghAZ+nHkZvaAh+sV2D05DKcPC3wQLIem9YFIyK8eocPO6tZLhMADJDJZD7xPirPV97bVeWuuj0dxkpLS/0mAJr523vEn2ql2sGTQHzI+vXrERERgXvuuadK6xkMBhw5cgRRUVG1VFnd1fGmP/HWqwq/Pzu4NvHEECKiuocB0EcYjUasX78eEydOhEJhPTA7YcIEzJ8/33J/0aJF2LFjB37//XccPHgQDzzwAM6ePYtp06Z5umyfZDSaAtylPwWysg0wGJwHujt7yuxOEWMwmNb/dJvepX4ccVc/7mSuwWiESzU5CoHufG3mk3eycwz49ztaaLUMmUREtYW7gH3Ezp07ce7cOUyZMsXmsXPnzkFW7tINly9fxvTp05GXl4fGjRsjLi4O+/btw8033+zJkn3S9kw9nl5kOlHh9zMCo6aUIUptutyYs0mFTVPEAFMf1WDH1wYMf7AM+RcF8vL/DjSu9GOvnoVLtcitYT/utD1Tj2dfNB0LajDC5W1kDoGjJ5fhxO8C/xhdCoMRKLj4d5vqvrYXXtYgPcMAADh+UiBtuQ6LV+gwY6ICz8y2PWyBiIhqhiOAPmLQoEEQQqBdu3Y2j+3evRsZGRmW+6+88grOnj0LjUaDvLw8fPHFF+jWrZsHq/VN2zP1SE7R4HKx9fK8AoHkFA22Z+qdrm+eJ1ChAH48arQKf1Xpp2I9uTXsx53MNZUPbVWpyRwCGzUEcvNR7X7Ke+FlDdas16Pi6WhGI7BmvR4vvKyxvyIREVUbAyDVCQaDwMKlWpsQAcCyLHWZttJdlL1vlyOsgf3HqtKPu+pxJ3fV1LK5BEfHj1f1tWm1Rqzd4Dwsrt2g5+5gIiI34y5gqhOyc4w2I23lCQFcyBPIzjGiZ7zcaT9/Xnb8POZ+kkaWIizM8dnCJSXCLfW4kzu30cVCx89jbxsJo8Cff8bhnY90kGR/B77cPCOMlWQ7oxF4Z5Me0yY4nq6GiIiqhgGQ6oT8QtdG0ipr52o/x34TAGo+eufq87mD97dRY+BM9bbbmT+8f+IMEVFdwgBIdYLaxcmJK2vnaj9PPBKE9jc6PoLi+EkjXnmj8kstufp87uDNbaTXG3Do0EF063YrFIq/Rxd37tHjw62GSvtqHeMfczMSEfkLBkCqE1pEA3I5YHCQJSTJdIZqfJzzw17j42SIUkvIKxB2j5Uz9/NYchDkcsehZPAAgU0f6R32AwARzVBpPe7UpZMEpRLQOriaW21uI51OALoC3J0gQ1DQ3187CX1l+PjzUqe7gWUyYMIYflUREbkTTwIhv3ch14ix0zVOwx8ApM5VOg1tACCXm6YxKb+eu/sx0+mA8xc8s2uzTCOQ/ITWafgDPLuNAECplGHGROfhbsZEBZRKflUREbkTv1XJr13INWLUlDKc/UOgZQsJSxYoEaW2Dh5RagnpK1Uuz02XlKBA+koVIiNqpx91MyAyArhcBIyaXIazf9TuGa5lGoFp/9Rgz3cGhIQAc2YF+cw2AoBnZqvw0GQFZBW+jWQy4KHJnAeQiKg2cL8K+a2K4W/z+mA0j5Jh7AgFsnOMyC8UUIebdmm6MhpVXlKCAoP6y2utn8I/TVfTOHlaYNTkMmxeH4xWMe7/91jF8PfOm8G4vbscs6YH+cw2Akwh8MlHg/DOJj3O/CHQOkbChDEc+SMiqi0MgOSXHIU/wLSL0h1Tq9RmP+pmEjatC67VEOgo/DmqqTrc1Q9g2h3MqV6IiDyD/7wmv+Ms/PkTdTMZNq0Lxo1tJFzIE27dHews/BEREfnfryYFtLoS/sxqIwQy/BERUWX895eTAk5dC39m7gyBDH9EROQK///1pIBQV8OfmTtCIMMf1RYhhEduxcXFAIDi4mKPPae7aibyN3XnF5TqrLoe/sxqEgIZ/oiIqCrq3q8o1SmBEv7MqhMCGf6IiKiq6u4vKfm9QAt/ZlUJgQx/RERUHZwHkHyCwSCsJhRuEQ2Mna4JuPBnZg6BFecJjFID6zfqsffbdjhfoMd32Tr8N0sw/BERUZUwAJLXbc/UY+FSLXLz/74urlwOGAwIyPBnVjEEJo4oRWkZYDQCQEvs3W8aFVQoGP6IiKhqAu9XlXzK9kw9klM0VuEPMIU/AHh4SlBAhj8zcwhsFAZcu24Of9b0emDXHr3niyMiIr8VuL+s5HUGg8DCpVoI4bjN62t1MBicNAgAjRsCJVedt1m7QQ+t1j1XESEiorqPAZC8JjvHaDPyV9GFPNOxgYHsnU16uyN/5RmNpnZERESuYAAkr8kvdG1kz9V2ddWZP1x7/a62IyIiYgAkr1GHS25tV1e1jnHt9bvajoiIiAGQvCY+ToYotQTJQW6RJCA6UkJ8XGC/TSeMUUBWySaQyUztiIiIXBHYv6zkVXK5hLR5SgCwCYHm+6lzlZDLA3tkS6mUYcZE5+FuxkQFlEp+nImIyDX8xSCvSkpQIH2lCpER1iEvSi0hfaUKSQkc1QKAZ2ar8NBk25FAmQx4aLICz8xWeacwIiLySwyA5HVJCQpk7QjBXb1Mb8cHRsqx76sQhr8KnpmtwokDIXh2jgx33X4Oz86R4cSBEIY/IiKqMv7Ckk+QyyVEhMsAGNEqRhbwu30dUSplmDJegcjGv+Huu29EUBD/DUdERFXHXw8iIiKiAMMASERERBRgGACJiIiIAgwDIBEREVGAYQAkIiIiCjAMgEREREQBhgHQB6SmpkKSJKtbhw4dnK6zZcsWdOjQAcHBwejcuTO2bdvmoWprh8EgUFBoBACc/cMIg0F4uSIiIqK6iwHQR9xyyy3Izc213L799luHbfft24exY8di6tSpOHToEIYNG4Zhw4bh6NGjHqzYfbZn6tFzUCn27jMFwHe3GNBzUCm2Z+q9XBkREVHdxADoIxQKBSIjIy238PBwh23/9a9/YfDgwXjyySfRsWNHLF68GLfeeitWrVrlwYrdY3umHskpGuTmW4/45RUIJKdoGAKJiIhqAQOgjzhx4gSio6Nxww03YPz48Th37pzDtllZWRg4cKDVssTERGRlZdV2mW5lMAgsXKqFsLO317wsdZmWu4OJiIjcjJeC8wE9evRARkYG2rdvj9zcXKSlpeHOO+/E0aNH0aBBA5v2eXl5UKvVVsvUajXy8vKcPo9Go4FGo7HcLykpAQDodDrodLpq129et6p97D9gtBn5K08I4EKewL5sLW7v7v5/q1S3bm/zx7r9sWaAdXuaP9btjzUD/lcvuR8DoA9ISkqy/H+XLl3Qo0cPtGrVCps3b8bUqVPd9jxLlixBWlqazfIdO3YgNDS0xv1nZmZWqf2BH9UAOlfabkfmIfxZkF/NqipX1bp9hT/W7Y81A6zb0/yxbn+r+fr1694ugbyMAdAHNWrUCO3atcPJkyftPh4ZGYn8fOtAlJ+fj8jISKf9zp8/HykpKZb7JSUliImJwaBBgxAWFlbtenU6HTIzM5GQkICgoCCX12sSYUTG5sqP8RuU0K3WRgCrU7e3+WPd/lgzwLo9zR/r9seaAeDSpUveLoG8jAHQB129ehWnTp3Cgw8+aPfxnj17YteuXXj88cctyzIzM9GzZ0+n/apUKqhUKpvlQUFBbvniqmo/veIFotQG5BUIu8cBShIQpZbQK14JuVyqcX2OuOv1e5o/1u2PNQOs29P8sW5/q9mfaqXawZNAfMCcOXOwZ88enDlzBvv27cN9990HuVyOsWPHAgAmTJiA+fPnW9o/9thj+PLLL/Hyyy/j119/RWpqKg4cOIBZs2Z56yVUi1wuIW2eEoAp7JVnvp86t3bDHxERUSBiAPQB58+fx9ixY9G+fXuMGjUKTZs2xf79+9GsWTMAwLlz55Cbm2tp36tXL2zcuBFr165FbGwsPvzwQ3z66afo1KmTt15CtSUlKJC+UoXICOuQF6WWkL5ShaQEDlITERG5G39dfcCmTZucPr57926bZSNHjsTIkSNrqSLPSkpQYFB/OSY8XIa9+4x4YKQczz+r4sgfERFRLeEIIPkEuVxCRLjp7dgqRsbwR0REVIsYAImIiIgCDAMgERERUYBhACQiIiIKMAyARERERAGGAZCIiIgowDAAEhEREQUYBkDyCQaDQEGhEQBw9g8jDAY714YjIiIit2AAJK/bnqlHz0Gl2LvPFADf3WJAz0Gl2J6p93JlREREdRMDIHnV9kw9klM0yM23HvHLKxBITtEwBBIREdUCBkDyGoNBYOFSLYSdvb3mZanLtNwdTERE5GYMgOQ12TlGm5G/8oQALuQJZOcYPVgVERFR3ccASF6TX+jayJ6r7YiIiMg1DIDkNepwya3tiIiIyDUMgOQ18XEyRKklSA7ynSQB0ZES4uP4NiUiInIn/rKS18jlEtLmKQHAJgSa76fOVUIu5wggERGROzEAklclJSiQvlKFyAjrkBellpC+UoWkBIWXKiMiIqq7GADJ65ISFMjaEYK7epnejg+MlGPfVyEMf0RERLWEAZB8glwuISLc9HZsFSPjbl8iIqJaxABIREREFGAYAImIiIgCDAMgERERUYBhACQiIiIKMAyARERERAGGAZCIiIgowDAAEhEREQUYBkDyCQaDQEGhEQBw9g8jDAbh5YqIiIjqLgZA8rrtmXr0HFSKvftMAfDdLQb0HFSK7Zl6L1dGRERUNzEAkldtz9QjOUWD3HzrEb+8AoHkFA1DIBERUS1gACSvMRgEFi7VQtjZ22telrpMy93BREREbsYASF6TnWO0GfkrTwjgQp5Ado7Rg1URERHVfQyA5DX5ha6N7LnajoiIiFzDAEheow6X3NqOiIiIXMMASF7TpDEgc/IOlCQgOlJCfBzfpkRERO7EX1byipO/GzFuugbGvw7vqzjGJ/21IHWuEnI5RwCJiIjciQHQByxZsgS33XYbGjRogIiICAwbNgzHjx93uk5GRgYkSbK6BQcHe6jimjn5uxGjp5ShoFCgw00SXn5eiUi1dciLUktIX6lCUoLCS1USERHVXfx19QF79uzBzJkzcdttt0Gv1+Ppp5/GoEGD8Msvv6BevXoO1wsLC7MKipLk+yNlFcPfB+tC0KSxhBFDFMjOMSK/UEAdbtrty5E/IiKi2sEA6AO+/PJLq/sZGRmIiIhATk4O7rrrLofrSZKEyMjI2i7PbRyFPwCQyyX0jJd7uUIiIqLAwF3APqi4uBgA0KRJE6ftrl69ilatWiEmJgZDhw7Fzz//7InyqsVZ+CMiIiLP4gigjzEajXj88cdxxx13oFOnTg7btW/fHuvWrUOXLl1QXFyMFStWoFevXvj555/RokULu+toNBpoNBrL/ZKSEgCATqeDTqerds3mdR31ceq0wLgZOlwsBNrfJOHddAUa1NejBk/pFpXV7av8sW5/rBlg3Z7mj3X7Y82A/9VL7icJYe9CXOQtDz/8MLZv345vv/3WYZCzR6fToWPHjhg7diwWL15st01qairS0tJslm/cuBGhoaHVrtmZvIuheO3fcSi5qkK0+gr+OfUg6tfjFw8RkTddv34d48aNQ3FxMcLCwrxdDnkBA6APmTVrFrZu3Yq9e/eiTZs2VV5/5MiRUCgUeP/99+0+bm8EMCYmBoWFhTX6AtDpdMjMzERCQgKCgoIsyyuO/L2XrvCp3b6O6vZ1/li3P9YMsG5P88e6/bFmALh06RKioqIYAAMYdwH7ACEEHn30UXzyySfYvXt3tcKfwWDAkSNHcPfddztso1KpoFKpbJYHBQW55YurfD8nfzdi/IwyXCyEzx/z567X72n+WLc/1gywbk/zx7r9rWZ/qpVqBwOgD5g5cyY2btyIrVu3okGDBsjLywMANGzYECEhIQCACRMmoHnz5liyZAkAYNGiRbj99ttx4403oqioCC+99BLOnj2LadOmee11mPGEDyIiIt/GAOgD3nzzTQBA3759rZavX78ekyZNAgCcO3cOsnLXTbt8+TKmT5+OvLw8NG7cGHFxcdi3bx9uvvlmT5UNADAYBPYfMOLAj2o0iTAiItyAcdM1DH9EREQ+jAHQB7hyGObu3but7r/yyit45ZVXaqki12zP1GPhUi1y8wWAzsjYrIdMpofR6Pu7fYmIiAIZAyBVy/ZMPZJTNKiYXc3X9p0+MYjhj4iIyEdxImiqMoNBYOFSrU34M5MAvLxKB4OBJ5gTERH5IgZAqrLsHONfu33tEwAu5Alk5xg9VxQRERG5jAGQqiy/0LWRPVfbERERkWcxAFKVqcNdO7bP1XZERETkWQyAVGXxcTJEqSVIDvKdJAHRkRLi4/j2IiIi8kX8haYqk8slpM1TAoBNCDTfT52rhFzOEUAiIiJfxABI1ZKUoED6ShUiI6xDXpRaQvpKFZISOMMQERGRr2IApGpLSlAga0cIQk1Xq8OKxXLs+yqE4Y+IiMjHMQBSjcjlEhR/5b2unWTc7UtEROQHGACJiIiIAgwDIBEREVGAYQAkIo9p2LAhJEnym1vDhg1ZtxtvROQ7GACJiIiIAgwDIBEREVGAYQAkIiIiCjAMgFQjBoOAXm/6/8NHjTAYhHcLIiIiokoxAFK1bc/Uo+egUlwvNd2f85wBPQeVYnum3ruFERERkVMMgFQt2zP1SE7RIDffesQvr0AgOUXDEEhEROTDGACpygwGgYVLtRB29vaal6Uu03J3MBERkY9iAKQqy84x2oz8lScEcCFPIDvH6MGqiIiIyFUMgFRl+YWujey52o6IiIg8iwGQqkwd7tqM/q62IyIiIs9iAKQqi4+TIUotwdGVnSQJiI6UEB/HtxcREZEv4i80VZlcLiFtnhIAbEKg+X7qXCXkco4AEhER+SIGQKqWpAQF0leqEBlhHfKi1BLSV6qQlKDwUmVERERUGQZAqrakBAWydoQgNMR0f8ViOfZ9FcLwR0RE5OMYAKlG5HIJir/yXtdOMu72JSIi8gMMgEREREQBhgGQiIiIKMAwABIREREFGAZAqpQkOb8VFZnaxXV33o6ouLgYQgi/uRUXF7NuN96IyHcwABIREREFGAZAIiIiogDDAEg1ZLT8n6q+weo+ERER+SYGQB+yevVqtG7dGsHBwejRoweys7Odtt+yZQs6dOiA4OBgdO7cGdu2bfNQpSZhERo0v7kUMrnpfmhjI5rfXIqwCI1H6yAiIqKqYQD0ER988AFSUlKwcOFCHDx4ELGxsUhMTERBQYHd9vv27cPYsWMxdepUHDp0CMOGDcOwYcNw9OhRj9QbFqFBg3C93ccahOsZAomIiHwYA6CPWLlyJaZPn47Jkyfj5ptvxpo1axAaGop169bZbf+vf/0LgwcPxpNPPomOHTti8eLFuPXWW7Fq1SoPVGu0hL+KZ/ea75se5+5gIiIiX8SLtvoArVaLnJwczJ8/37JMJpNh4MCByMrKsrtOVlYWUlJSrJYlJibi008/dfg8Go0GGs3fI3MlJSUAAJ1OB51O53C9kBDr+6owvdNpXcyPNVJroCn5+y3m5Cm8wvyanb12X+SPdftjzQDr9jR/rNsfawb8r15yPwZAH1BYWAiDwQC1Wm21XK1W49dff7W7Tl5ent32eXl5Dp9nyZIlSEtLs1m+Y8cOhIaGOlzv/fet72/+vB327m/psL3Z3f84g1FDfrPc9/Ahii7LzMz0dgnV4o91+2PNAOv2NH+s299qvn79urdLIC9jAAwg8+fPtxo1LCkpQUxMDAYNGoSwsDCH6zVsaH1fFaZH/fDKd+9u+09rfLLxRsv9v+am9Rk6nQ6ZmZlISEhAUFCQt8txmT/W7Y81A6zb0/yxbn+sGQAuXbrk7RLIyxgAfUB4eDjkcjny8/Otlufn5yMyMtLuOpGRkVVqDwAqlQoqlcpmeVBQkNMvrtLSivflqNfUtNDermDzhP9F+SqUP8zUV78bK3v9vsof6/bHmgHW7Wn+WLe/1exPtVLt4EkgPkCpVCIuLg67du2yLDMajdi1axd69uxpd52ePXtatQdMuyActXcvGa4Umv7tUPHqTub7psf59iIiIvJFHAH0ESkpKZg4cSK6d++O+Ph4vPrqq7h27RomT54MAJgwYQKaN2+OJUuWAAAee+wx9OnTBy+//DLuuecebNq0CQcOHMDatWs9Um9JgWkk0d5UMFcKFZbHiYiIyPcwAPqI0aNH4+LFi1iwYAHy8vLQtWtXfPnll5YTPc6dOweZ7O8RtV69emHjxo149tln8fTTT+Omm27Cp59+ik6dOnms5pICFUoKgtBIrcHd/ziDbf9pbbPbl4iIiHwPA6APmTVrFmbNmmX3sd27d9ssGzlyJEaOHFnLVVVGBk2JAqOG/PbXCR8Mf0RERL6Ov9ZEREREAYYBkIiIiCjAMAASERERBRgGQKqUEM5v5gmei4udtyMiIiLfwABIREREFGAYAImIiIgCDAMgERERUYBhACQiIiIKMAyARERERAGGAZCIiIgowDAAEhEREQUYXgs4gIm/JucrKSmpUT86nQ7Xr19HSUkJgoKC3FGaR7Buz/HHmgHW7Wn+WLc/1gwAV65cAfD37wAFHgbAAGb+AoiJifFyJURE5A2XLl1Cw4YNvV0GeYEkGP8DltFoxIULF9CgQQNIklTtfkpKShATE4M//vgDYWFhbqywdrFuz/HHmgHW7Wn+WLc/1gwAxcXFaNmyJS5fvoxGjRp5uxzyAo4ABjCZTIYWLVq4rb+wsDC/+gI0Y92e4481A6zb0/yxbn+sGTD9DlBg4l+eiIiIKMAwABIREREFGAZAqjGVSoWFCxdCpVJ5u5QqYd2e4481A6zb0/yxbn+sGfDfusl9eBIIERERUYDhCCARERFRgGEAJCIiIgowDIBEREREAYYBkFyyevVqtG7dGsHBwejRoweys7Odtt+yZQs6dOiA4OBgdO7cGdu2bfNQpSZLlizBbbfdhgYNGiAiIgLDhg3D8ePHna6TkZEBSZKsbsHBwR6q2CQ1NdWmhg4dOjhdx9vbGgBat25tU7ckSZg5c6bd9t7Y1nv37sWQIUMQHR0NSZLw6aefWj0uhMCCBQsQFRWFkJAQDBw4ECdOnKi036p+NtxZt06nw9y5c9G5c2fUq1cP0dHRmDBhAi5cuOC0z+q8z9xZNwBMmjTJpobBgwdX2q83tzcAu+9zSZLw0ksvOeyztre3K993ZWVlmDlzJpo2bYr69etjxIgRyM/Pd9pvdT8T5B8YAKlSH3zwAVJSUrBw4UIcPHgQsbGxSExMREFBgd32+/btw9ixYzF16lQcOnQIw4YNw7Bhw3D06FGP1bxnzx7MnDkT+/fvR2ZmJnQ6HQYNGoRr1645XS8sLAy5ubmW29mzZz1U8d9uueUWqxq+/fZbh219YVsDwA8//GBVc2ZmJgBg5MiRDtfx9La+du0aYmNjsXr1aruPL1++HK+99hrWrFmD77//HvXq1UNiYiLKysoc9lnVz4a7675+/ToOHjyI5557DgcPHsTHH3+M48eP4957762036q8z9xdt9ngwYOtanj//fed9unt7Q3Aqt7c3FysW7cOkiRhxIgRTvutze3tyvfdE088gc8//xxbtmzBnj17cOHCBQwfPtxpv9X5TJAfEUSViI+PFzNnzrTcNxgMIjo6WixZssRu+1GjRol77rnHalmPHj1EcnJyrdbpTEFBgQAg9uzZ47DN+vXrRcOGDT1XlB0LFy4UsbGxLrf3xW0thBCPPfaYaNu2rTAajXYf9/a2BiA++eQTy32j0SgiIyPFSy+9ZFlWVFQkVCqVeP/99x32U9XPhrvrtic7O1sAEGfPnnXYpqrvs5qyV/fEiRPF0KFDq9SPL27voUOHiv79+ztt4+ntXfH7rqioSAQFBYktW7ZY2hw7dkwAEFlZWXb7qO5ngvwHRwDJKa1Wi5ycHAwcONCyTCaTYeDAgcjKyrK7TlZWllV7AEhMTHTY3hOKi4sBAE2aNHHa7urVq2jVqhViYmIwdOhQ/Pzzz54oz8qJEycQHR2NG264AePHj8e5c+cctvXFba3VavHuu+9iypQpTq8x7Qvb2uz06dPIy8uz2pYNGzZEjx49HG7L6nw2PKG4uBiSJFV6fdeqvM9qy+7duxEREYH27dvj4YcfxqVLlxy29cXtnZ+fjy+++AJTp06ttK0nt3fF77ucnBzodDqrbdehQwe0bNnS4barzmeC/AsDIDlVWFgIg8EAtVpttVytViMvL8/uOnl5eVVqX9uMRiMef/xx3HHHHejUqZPDdu3bt8e6deuwdetWvPvuuzAajejVqxfOnz/vsVp79OiBjIwMfPnll3jzzTdx+vRp3Hnnnbhy5Yrd9r62rQHg008/RVFRESZNmuSwjS9s6/LM26sq27I6n43aVlZWhrlz52Ls2LFOr0tb1fdZbRg8eDDeeecd7Nq1C8uWLcOePXuQlJQEg8Fgt70vbu8NGzagQYMGle5K9eT2tvd9l5eXB6VSafOPgsq+x81tXF2H/IvC2wUQ1baZM2fi6NGjlR5z07NnT/Ts2dNyv1evXujYsSPS09OxePHi2i4TAJCUlGT5/y5duqBHjx5o1aoVNm/e7NIogy94++23kZSUhOjoaIdtfGFb1zU6nQ6jRo2CEAJvvvmm07a+8D4bM2aM5f87d+6MLl26oG3btti9ezcGDBjgkRpqat26dRg/fnylJzB5cnu7+n1HxBFAcio8PBxyudzmbLH8/HxERkbaXScyMrJK7WvTrFmz8J///AfffPMNWrRoUaV1g4KC0K1bN5w8ebKWqqtco0aN0K5dO4c1+NK2BoCzZ89i586dmDZtWpXW8/a2Nm+vqmzL6nw2aos5/J09exaZmZlOR//sqex95gk33HADwsPDHdbgS9sbAP773//i+PHjVX6vA7W3vR1930VGRkKr1aKoqMiqfWXf4+Y2rq5D/oUBkJxSKpWIi4vDrl27LMuMRiN27dplNYJTXs+ePa3aA0BmZqbD9rVBCIFZs2bhk08+wddff402bdpUuQ+DwYAjR44gKiqqFip0zdWrV3Hq1CmHNfjCti5v/fr1iIiIwD333FOl9by9rdu0aYPIyEirbVlSUoLvv//e4baszmejNpjD34kTJ7Bz5040bdq0yn1U9j7zhPPnz+PSpUsOa/CV7W329ttvIy4uDrGxsVVe193bu7Lvu7i4OAQFBVltu+PHj+PcuXMOt111PhPkZ7x8Egr5gU2bNgmVSiUyMjLEL7/8ImbMmCEaNWok8vLyhBBCPPjgg2LevHmW9t99951QKBRixYoV4tixY2LhwoUiKChIHDlyxGM1P/zww6Jhw4Zi9+7dIjc313K7fv26pU3FutPS0sRXX30lTp06JXJycsSYMWNEcHCw+Pnnnz1W9+zZs8Xu3bvF6dOnxXfffScGDhwowsPDRUFBgd2afWFbmxkMBtGyZUsxd+5cm8d8YVtfuXJFHDp0SBw6dEgAECtXrhSHDh2ynC27dOlS0ahRI7F161bx008/iaFDh4o2bdqI0tJSSx/9+/cXr7/+uuV+ZZ+N2q5bq9WKe++9V7Ro0UIcPnzY6r2u0Wgc1l3Z+6y2675y5YqYM2eOyMrKEqdPnxY7d+4Ut956q7jppptEWVmZw7q9vb3NiouLRWhoqHjzzTft9uHp7e3K991DDz0kWrZsKb7++mtx4MAB0bNnT9GzZ0+rftq3by8+/vhjy31XPhPkvxgAySWvv/66aNmypVAqlSI+Pl7s37/f8lifPn3ExIkTrdpv3rxZtGvXTiiVSnHLLbeIL774wqP1ArB7W79+vcO6H3/8cctrVKvV4u677xYHDx70aN2jR48WUVFRQqlUiubNm4vRo0eLkydPOqxZCO9va7OvvvpKABDHjx+3ecwXtvU333xj9z1hrstoNIrnnntOqNVqoVKpxIABA2xeS6tWrcTChQutljn7bNR23adPn3b4Xv/mm28c1l3Z+6y2675+/boYNGiQaNasmQgKChKtWrUS06dPtwlyvra9zdLT00VISIgoKiqy24ent7cr33elpaXikUceEY0bNxahoaHivvvuE7m5uTb9lF/Hlc8E+S9JCCFqZ2yRiIiIiHwRjwEkIiIiCjAMgEREREQBhgGQiIiIKMAwABIREREFGAZAIiIiogDDAEhEREQUYBgAiYiIiAIMAyARERFRgGEAJCIiIgowDIBEFDAMBgN69eqF4cOHWy0vLi5GTEwMnnnmGS9VRkTkWbwUHBEFlN9++w1du3bFW2+9hfHjxwMAJkyYgB9//BE//PADlEqllyskIqp9DIBEFHBee+01pKam4ueff0Z2djZGjhyJH374AbGxsd4ujYjIIxgAiSjgCCHQv39/yOVyHDlyBI8++iieffZZb5dFROQxDIBEFJB+/fVXdOzYEZ07d8bBgwehUCi8XRIRkcfwJBAiCkjr1q1DaGgoTp8+jfPnz3u7HCIij+IIIBEFnH379qFPnz7YsWMHnn/+eQDAzp07IUmSlysjIvIMjgASUUC5fv06Jk2ahIcffhj9+vXD22+/jezsbKxZs8bbpREReQxHAIkooDz22GPYtm0bfvzxR4SGhgIA0tPTMWfOHBw5cgStW7f2boFERB7AAEhEAWPPnj0YMGAAdu/ejd69e1s9lpiYCL1ez13BRBQQGACJiIiIAgyPASQiIiIKMAyARERERAGGAZCIiIgowDAAEhEREQUYBkAiIiKiAMMASERERBRgGACJiIiIAgwDIBEREVGAYQAkIiIiCjAMgEREREQBhgGQiIiIKMAwABIREREFGAZAIiIiogDDAEhEREQUYBgAiYiIiAIMAyARERFRgGEAJCIiIgow/w/NgIgOhBSfPQAAAABJRU5ErkJggg==;" vertex="1" parent="1">
          <mxGeometry x="250" y="400" width="640" height="480" as="geometry" />
        </mxCell>
        <mxCell id="-cgsFTUKVh0ujgJ57k_H-13" value="" style="rounded=1;whiteSpace=wrap;html=1;fillColor=none;strokeWidth=6;strokeColor=#FF0000;strokeOpacity=45;fillOpacity=100;" vertex="1" parent="1">
          <mxGeometry x="460" y="600" width="110" height="120" as="geometry" />
        </mxCell>
      </root>
    </mxGraphModel>
  </diagram>
</mxfile>
